<svg viewBox="0 0 175 100" fill="none" xmlns="http://www.w3.org/2000/svg"><path fill-rule="evenodd" clip-rule="evenodd" d="M50.002 100C77.615 100 100 77.61 100 49.998 100 22.385 77.615 0 50.002 0 22.387 0 0 22.385 0 49.998 0 77.61 22.387 100 50.002 100z" fill="#dd1353"/><path fill-rule="evenodd" clip-rule="evenodd" d="M60.095 50.05c-.086.224-.204.526-.31.836-1.442-5.075-2.728-7.388-4.481-10.045.215-.31.482-.788.644-1.092.32-.08 1.502-.465 1.92-1.702.56-1.667-.37-3.658-.37-3.658s-1.658 1.08-2.232 2.615c-.437 1.165.027 2.215.186 2.518-.066.126-.351.641-.474.828a19.469 19.469 0 01-1.742-3.206c.194-.32.414-.78.551-1.074.314-.1 1.471-.552 1.82-1.809.466-1.698-.58-3.634-.58-3.634s-1.592 1.175-2.078 2.737c-.37 1.19.157 2.21.33 2.507-.086.187-.195.414-.305.626-1.61-4.228-1.195-7.865-.854-9.516.35-.115 1.653-.619 2.243-1.965.77-1.759.259-4.016.259-4.016s-2.412.922-3.3 2.785c-.591 1.24-.073 2.43.167 2.87a15.62 15.62 0 00-.329 2.288 16.973 16.973 0 01-.841-.7c.06-.262.321-1.63-.563-2.824-1.09-1.465-3.199-2.115-3.199-2.115s-.382 2.417.737 4.03c.822 1.19 2.197 1.246 2.574 1.235.323.288.89.772 1.256 1.018-.076.782-.11 5.503 2.6 10.036a28.4 28.4 0 01-.966-.284c-.099-.383-.489-1.551-1.67-2.181-1.582-.842-3.41-.333-3.41-.333s.368 2.101 2.039 3.06c1.382.796 2.779.026 2.877-.028.184.063 1.307.376 1.529.421.09.145 2.069 3.027 2.98 5.096-.192-.059-.659-.216-.857-.29-.067-.28-.435-1.608-1.74-2.292-1.617-.85-3.803-.52-3.803-.52s.714 2.343 2.423 3.312c1.282.73 2.572.148 2.877-.01.357.14.951.363 1.408.497.624 1.47 1.941 5.046 2.07 7.23.122 1.995-.912 4.473-2.143 4.56-.52.034-.316-.543-.081-1.098.267-.128 1.242-.677 1.387-1.842.198-1.571-.978-3.16-.978-3.16s-1.267 1.246-1.501 2.7c-.175 1.102.413 1.94.611 2.188-.69 2.014-.995-.017-1.039-.261a16.397 16.397 0 00-.84-3.021c.215-.366.477-.95.611-1.257.303-.124 1.415-.67 1.655-1.956.32-1.723-.883-3.562-.883-3.562s-1.483 1.305-1.834 2.898c-.266 1.207.335 2.173.536 2.463-.085.2-.216.491-.348.756a23.54 23.54 0 00-1.59-3.115c.1-.432.267-1.625-.602-2.591-1.26-1.398-3.61-1.582-3.61-1.582s.14 2.108 1.27 3.447c.82.97 1.974 1.125 2.4 1.146.63 1.057 1.73 3.091 2.321 5.363-.271-.134-.63-.322-.948-.497.004-.245-.027-1.51-1.036-2.4-1.245-1.095-3.242-1.272-3.242-1.272s.121 2.218 1.42 3.439c.896.842 2.03.71 2.444.625.21.114 1.342.744 1.525.806.163.538.435 2.764.021 3.685-.21-.107-.443-.228-.657-.347.004-.244-.026-1.508-1.039-2.398-1.245-1.1-3.239-1.273-3.239-1.273s.12 2.215 1.419 3.438c.898.843 2.031.711 2.448.624.156.062.817.317.664.79-.1.307-.541.663-1.379.25-3.538-1.745-4.534.514-7.893-.645-.978-.333-.416-1.18.006-1.212.25-.022.586.013.844.081.372.101.842.2.957-.093.069-.173-.058-.276-.176-.353-.082-.055-.14-.112-.097-.2.039-.08.193-.029.346.036.284.112.997.288 1.174-.21.079-.225-.125-.337-.295-.353-.13-.01-.195-.096-.172-.173.031-.104.162-.085.33-.068.633.058.83-.187.88-.392.077-.292-.172-.355-.325-.367-.177-.01-.233-.103-.242-.187-.013-.138.098-.219.28-.283.394-.137.447-.66.278-.896-.167-.228-.716-.4-.965-.05-.135.189-.217.305-.39.212-.102-.056-.108-.202-.083-.311.054-.244-.058-.377-.253-.397-.518-.051-.655.685-.677.804-.023.148-.055.25-.14.25-.125-.004-.158-.119-.13-.243.042-.187-.058-.367-.26-.374-.468-.01-.587.682-.564.954.019.246.04.468-.06.487-.085.017-.147-.064-.163-.168-.032-.18-.187-.311-.35-.254-.358.128-.344.836-.31 1.204.019.202.103.448-.18 1.07-.077.17-.241.535-.344.775-.352-.383-.537-.591-.685-1.587-.232-1.555.21-3.147 1.166-3.423.271-.08.52-.004.817.066.418.1.953.198 1.077-.138.068-.191-.078-.308-.213-.39-.093-.06-.163-.119-.117-.223.047-.092.219-.039.395.027.326.12 1.131.303 1.317-.263.084-.265-.151-.383-.345-.392-.146-.008-.223-.105-.2-.192.033-.12.184-.102.375-.088.713.045.923-.238.98-.472.076-.33-.205-.388-.381-.396-.198-.016-.262-.115-.273-.207-.025-.156.103-.25.304-.328.439-.167.484-.756.289-1.015-.198-.258-.822-.435-1.094-.03-.145.219-.234.352-.432.248-.115-.06-.128-.222-.103-.35.053-.275-.077-.422-.296-.437-.586-.042-.72.79-.738.927-.027.165-.058.282-.152.282-.143.003-.182-.125-.156-.263.044-.216-.078-.417-.304-.417-.53.003-.641.787-.607 1.093.03.274.056.526-.055.55-.095.02-.165-.067-.191-.185-.038-.204-.217-.343-.397-.274-.4.154-.365.952-.316 1.366.028.222.03.861-.26 1.575-.302.764-.898 2.656-1.837 3.072-.395.175-.844.007-.899-1.174-.012-.277.058-.62.251-.821.17-.18.386-.234.637-.313.359-.115.8-.277.742-.58-.032-.177-.191-.195-.332-.198-.095-.006-.173-.018-.185-.115-.01-.089.145-.126.307-.154.298-.054.978-.278.863-.782-.052-.235-.281-.221-.43-.14-.115.057-.213.02-.235-.055-.026-.102.092-.157.239-.232.554-.281.586-.584.522-.787-.09-.281-.327-.2-.461-.13-.153.078-.248.034-.3-.03-.084-.106-.031-.23.086-.383.25-.315.022-.777-.24-.885-.261-.102-.809.04-.83.465-.01.226-.016.366-.213.378-.11.007-.193-.111-.232-.216-.081-.228-.247-.284-.415-.197-.456.23-.186.911-.136 1.023.052.134.081.234.011.277-.106.064-.192-.012-.234-.13-.064-.18-.246-.277-.413-.173-.395.236-.13.87.032 1.084.149.191.283.367.208.434-.06.056-.156.023-.226-.051-.122-.134-.317-.162-.417-.03-.232.294.15.873.371 1.16.119.156.347.32.412.984.086.802.27 1.474.403 1.874-1.117-.364-2-2.654-1.896-4.511.04-.692.167-1.453.281-2.092.326-1.6 1.21-2.113 1.7-2.335.29-.134.651-.3.96-.227.276.064.46.249.682.454.317.29.738.633 1.008.401.156-.135.083-.305.006-.445-.055-.098-.084-.183.006-.25.083-.06.208.072.333.216.224.26.84.81 1.276.403.204-.187.06-.404-.106-.505-.128-.08-.147-.203-.081-.267.084-.087.206.002.368.105.6.386.923.242 1.084.063.231-.255.012-.44-.137-.533-.166-.107-.175-.226-.14-.313.057-.144.213-.17.428-.138.462.067.79-.428.745-.748-.046-.32-.506-.78-.94-.556-.234.122-.377.195-.499.008-.073-.106-.003-.257.08-.355.18-.213.137-.407-.044-.527-.493-.319-1.016.345-1.098.456-.105.13-.188.218-.27.172-.127-.068-.1-.199-.008-.306.145-.168.136-.401-.064-.512-.463-.256-.942.378-1.064.663-.106.252-.203.487-.314.454-.093-.028-.114-.14-.076-.253.064-.198-.023-.408-.217-.433-.426-.059-.78.653-.938 1.04-.087.208-.134.503-.742.976-.205.16-.833.636-1.066.815a28.269 28.269 0 012.381-4.74c.4-.642 1.401-.81 1.972-.567.265.115.407.34.59.59.259.354.61.777.923.6.183-.103.144-.287.096-.444-.032-.105-.049-.197.057-.247.095-.044.192.114.287.28.17.308.677.975 1.194.66.239-.147.137-.395-.006-.53-.11-.102-.106-.228-.03-.28.103-.07.208.044.345.178.527.506.873.425 1.072.28.28-.208.101-.439-.029-.56-.145-.138-.129-.26-.078-.34.086-.133.244-.125.455-.052.447.16.873-.27.892-.596.019-.328-.35-.877-.825-.74-.256.071-.415.118-.501-.094-.052-.122.05-.256.15-.337.224-.179.221-.38.063-.534-.427-.418-1.08.14-1.187.234-.13.112-.23.18-.305.116-.11-.09-.058-.214.056-.305.179-.14.215-.373.04-.52-.413-.35-1.017.184-1.193.446-.16.233-.303.445-.406.392-.086-.047-.084-.162-.025-.27.102-.184.058-.41-.126-.475-.415-.143-.91.497-1.147.852-.128.192-.267.562-.969.912-.153.074-.646.219-.646.219.46-.667.911-1.346 1.323-1.958 1.782-2.643 2.364-4.406 2.773-4.899.533-.647 1.039-.725 1.271-.812.426-.16 1.216-.523 1.169-.988-.027-.208-.252-.31-.468-.247-.127.037-.247.01-.275-.093-.031-.119.226-.218.506-.325.315-.122 1.022-.623.758-1.135-.113-.22-.368-.234-.557-.085-.122.096-.265.121-.336-.017-.045-.092.05-.18.198-.286.124-.09.866-.634.531-1.178-.122-.204-.332-.255-.573-.067-.109.086-.274.157-.39.076-.2-.14-.114-.294.024-.541.259-.467-.228-.98-.576-1.04-.346-.06-.899.28-.84.785.027.235-.004.404-.165.462-.098.034-.226.018-.338-.165-.095-.163-.292-.406-.576-.165-.201.17-.368.517.034 1.184.106.176.198.311.1.398-.073.07-.204.044-.284-.095-.106-.182-.341-.347-.552-.135-.456.46.12 1.15.4 1.403.152.139.293.279.222.366-.073.098-.166.06-.27 0-.15-.09-.335-.171-.486-.01-.262.285.098.755.406 1.11.216.247.396.455.472.752.117.447-1.624 3.673-2.164 4.483.005-.203.01-.392.011-.5.011-.788.31-1.138.428-1.337.218-.367.585-1.096.274-1.407-.139-.14-.365-.083-.486.091-.074.1-.175.153-.26.092-.092-.068.04-.29.183-.537.16-.272.382-1.053-.112-1.274-.214-.094-.409.042-.46.263-.03.143-.122.244-.256.184-.088-.04-.07-.16-.024-.327.04-.135.264-.969-.302-1.177-.21-.075-.394.01-.46.29-.03.127-.108.276-.241.284-.23.012-.257-.15-.301-.413-.086-.493-.744-.586-1.034-.427-.292.161-.497.734-.156 1.07.156.157.235.297.15.434-.052.082-.154.15-.344.078-.168-.064-.452-.126-.521.214-.05.245.034.596.722.85.18.068.33.113.31.236-.015.092-.126.15-.267.096-.185-.073-.455-.057-.486.224-.06.604.77.772 1.122.792.192.014.376.036.378.14.001.114-.085.143-.199.159-.163.022-.346.07-.361.277-.026.362.514.498.95.575.307.06.57.094.792.277.248.21.36.602.406.927.028.196.037.47.037.635-.25.383-.507.762-.766 1.143-.661.977-1.33 1.968-1.998 3.135 0-.404.014-1.052.07-1.254.065-.228.204-.434.387-.611.259-.258.566-.598.377-.834-.103-.137-.252-.08-.374-.022-.086.04-.16.064-.21-.015-.047-.073.066-.173.194-.271.231-.18.72-.677.397-1.06-.152-.178-.342-.066-.434.07-.072.102-.176.114-.231.058-.067-.074.012-.174.106-.305.351-.493.243-.77.098-.913-.207-.204-.372-.026-.457.093-.096.137-.198.139-.271.106-.122-.054-.134-.185-.099-.367.075-.386-.33-.684-.605-.656-.27.025-.679.392-.509.768.094.2.152.325-.012.422-.094.054-.217-.011-.295-.083-.178-.162-.342-.135-.45.016-.29.401.249.87.338.944.11.092.178.165.136.233-.061.102-.17.075-.26-.006-.135-.127-.336-.13-.435.031-.235.381.283.81.515.923.212.1.406.193.376.285-.028.077-.126.09-.218.054-.167-.062-.347.003-.378.163-.067.356.521.685.841.834.176.08.43.13.8.666.301.44.13 1.577 0 1.85-.513 1.09-1.089 2.302-1.616 3.78-.089-.349-.18-.816-.103-1.145.048-.22.192-.368.354-.553.23-.256.495-.597.305-.81-.111-.12-.245-.06-.358.003-.076.043-.146.072-.201-.002-.048-.065.055-.168.169-.267.205-.185.638-.685.305-1.028-.154-.157-.327-.04-.407.095-.06.1-.157.12-.209.07-.073-.066-.005-.167.075-.296.301-.487.18-.742.036-.868-.208-.179-.356-.002-.43.117-.08.136-.175.144-.246.118-.118-.042-.14-.167-.117-.34.044-.37-.357-.626-.614-.584-.256.043-.614.415-.43.76.1.184.161.298.014.399-.087.059-.205.004-.285-.06-.175-.138-.33-.104-.423.046-.248.398.292.804.382.87.108.08.175.144.142.21-.051.104-.156.085-.246.01-.137-.11-.325-.1-.409.06-.198.376.319.748.548.84.204.082.393.156.37.243-.02.077-.111.095-.203.067-.16-.05-.326.025-.343.176-.041.342.535.616.851.736 1.156.437 1.128 2.11.968 2.573-.247.717-.69 1.198-1.451 1.093-1.119-.158-1.745-2.512-1.693-4.014.087-2.597 1.994-6.1 2.624-7.609.532-1.27 1.172-3.23 1.582-4.81.491-1.897.71-2.139 1.339-3.175.182-.298.432-.65.761-.759.295-.1.568-.03.894.032.462.087 1.05.166 1.165-.203.066-.213-.1-.33-.252-.418-.103-.058-.183-.118-.136-.234.044-.102.236-.054.432.01.359.115 1.247.27 1.417-.353.08-.291-.181-.41-.393-.41-.161 0-.25-.102-.228-.199.03-.127.195-.118.402-.115.779.016.996-.3 1.044-.558.069-.366-.243-.417-.432-.417-.217-.003-.293-.109-.312-.21-.03-.166.101-.277.318-.373.47-.201.487-.848.262-1.117-.226-.27-.917-.436-1.192.02-.145.246-.235.397-.457.294-.128-.06-.148-.236-.13-.373.044-.305-.104-.458-.343-.465-.64-.015-.745.897-.758 1.048-.02.18-.048.306-.15.314-.157.01-.206-.127-.18-.281.035-.238-.108-.45-.352-.438-.58.028-.661.889-.61 1.222.046.294.09.567-.03.599-.104.026-.186-.063-.218-.19-.051-.221-.254-.366-.444-.279-.43.188-.353 1.052-.28 1.5.043.244.167.544-.124 1.328-.094.252-.428 1.038-.576 1.391.162-1.661-.003-3.275-.031-4.065-.03-.84.193-1.084.31-1.3.214-.4.574-1.193.226-1.51-.152-.14-.39-.07-.511.12-.074.11-.18.17-.269.108-.103-.067.025-.31.164-.577.16-.296.36-1.137-.176-1.35-.228-.09-.432.065-.474.302-.029.154-.119.264-.264.205-.097-.04-.081-.167-.04-.344.035-.148.232-1.044-.38-1.237-.224-.071-.418.027-.473.327-.025.139-.106.299-.246.314-.242.025-.278-.148-.337-.426-.114-.52-.818-.586-1.12-.403-.301.18-.492.798-.116 1.142.175.159.264.305.181.454-.051.092-.157.165-.363.098-.18-.06-.488-.113-.543.255-.04.26.062.629.803.868.198.064.358.104.344.237-.011.098-.125.165-.28.113-.2-.067-.485-.04-.504.26-.04.647.852.786 1.225.793.208.005.407.02.412.131.006.125-.089.154-.206.177-.173.032-.365.09-.371.313-.008.387.57.509 1.036.57.769.1 1.057.256 1.26.934.174.59.217 3.52-.312 5.908a57.75 57.75 0 00-.287-1.078c-.212-.752-.073-1.023-.015-1.247.101-.414.241-1.212-.144-1.42-.173-.092-.371.026-.437.227-.04.116-.123.196-.22.16-.107-.037-.045-.288.02-.56.074-.307.064-1.114-.474-1.186-.23-.029-.374.16-.36.382.01.147-.048.269-.192.25-.095-.014-.11-.134-.114-.306-.003-.139-.03-.999-.627-1.032-.222-.014-.373.12-.356.406.008.13-.022.293-.148.338-.214.08-.287-.07-.406-.305-.221-.448-.875-.345-1.106-.112-.23.235-.262.838.158 1.06.196.107.312.22.268.373-.023.093-.106.185-.306.17-.174-.01-.468.01-.432.357.022.244.201.554.927.602.195.013.348.013.365.135.014.092-.076.18-.226.168-.197-.015-.45.077-.397.353.113.592.952.515 1.292.436.189-.045.372-.076.403.023.034.108-.046.16-.147.209-.147.068-.309.165-.262.367.08.353.632.325 1.069.277.306-.034.568-.075.834.037.298.128.52.468.65.767.354.804.329 1.43.296 1.711a24.9 24.9 0 01-1.423 3.827c-.016-.209-.042-.64-.039-.843.008-.661.187-.847.287-1.015.181-.309.488-.925.226-1.185-.118-.117-.307-.068-.409.08-.059.084-.148.129-.215.077-.08-.057.031-.247.15-.45.133-.231.32-.888-.098-1.073-.18-.08-.343.038-.386.221-.026.123-.101.207-.215.157-.073-.034-.058-.136-.017-.275.031-.114.215-.815-.26-.986-.177-.064-.333.008-.386.24-.025.108-.092.236-.201.242-.194.013-.217-.124-.256-.345-.07-.416-.627-.49-.87-.355-.244.132-.416.616-.129.898.135.132.2.248.128.365-.04.069-.128.125-.288.066-.14-.053-.383-.105-.439.183-.039.204.033.498.609.711.154.054.279.092.263.197-.012.077-.106.128-.224.08-.156-.058-.383-.044-.407.191-.05.509.647.647.943.663.164.012.319.028.32.117.002.096-.073.12-.167.133-.135.022-.291.061-.302.237-.022.305.432.413.798.479.258.048.48.078.67.233.209.173.302.503.341.773.086.6.17 1.243-.365 1.655-.384.298-.887.357-1.504-.068-.416-.285-2.145-1.952-1.596-4.118.835-3.282-.37-6.667-.529-7.368-.187-.817-.007-1.099.07-1.334.14-.434.344-1.277-.052-1.524-.18-.112-.4 0-.484.21-.05.123-.145.2-.245.157-.112-.048-.031-.31.06-.597.1-.322.146-1.186-.424-1.297-.241-.05-.411.141-.411.382.003.154-.069.282-.22.25-.102-.021-.113-.15-.102-.332.006-.151.036-1.067-.599-1.147-.236-.03-.407.103-.407.408-.002.138-.047.314-.183.353-.235.068-.3-.093-.412-.356-.204-.492-.91-.43-1.173-.195-.263.234-.338.876.094 1.144.201.126.315.255.26.415-.032.098-.124.191-.338.162-.189-.027-.5-.024-.487.348.006.265.176.608.949.708.206.026.37.039.379.171.008.1-.094.185-.253.163-.21-.03-.485.05-.45.347.08.643.98.618 1.352.559.204-.034.4-.06.427.051.03.12-.057.17-.17.213-.162.062-.341.154-.307.377.06.38.652.38 1.123.368 1.195-.032 1.6.728 1.716 1.489.462 3.002.152 4.027-.532 6.116-1.171 3.581 1.124 4.53 1.45 6.903.546 3.95-1.426 7.054-1.197 8.165.278 1.342 2.875.253 3.173 1.07.227.62-.296 1.18-.057 1.832.234.654 1.441.204 1.702.711.226.448-.71.979-.315 1.786.387.803 1.18.55 1.849 1.277.517.562.616 1.477.71 2.296.127 1.11.505 1.604 1.007 1.79 1.061.4 3.267-.626 3.96-.928 2.172-.95 5.17-2.168 8.447-1.216-1.281-.083-2.93-.125-4.792.658-2.098.885-3.184 1.963-5.243 2.571-1.097.322-2.308.649-3.44-.146-1.292-.906-.884-2.083-1.517-2.51-.351-.234-.863.74-1.595.632-.64-.095-1.096-.66-1.496-1.375l.493-.308a1.195 1.195 0 10.964-1.9 1.197 1.197 0 00-1.148 1.536l-.496.311a11.355 11.355 0 01-.566-1.387 1.39 1.39 0 00.914-1.307 1.396 1.396 0 00-2.793 0c0 .768.626 1.392 1.395 1.394.307.879.684 2.263-.02 2.504-.7.241-1.683-1.212-2.035-2.74-.374-1.625.014-2.984.014-2.984a1.25 1.25 0 10.293-2.466c-.694 0-1.257.562-1.257 1.252 0 .447.236.836.587 1.057l-.283.972-.588-.34a1 1 0 10-.964.733 1 1 0 00.779-.373l.675.39c-.189.58-.546 1.28-1.176 1.301-.616.017-1.376-.338-1.69-1.76a11.378 11.378 0 01-.201-1.227c1.466-1.838 3.663-2.5 3.891-2.58.293-.101.267-.215-.094-.23-2.398-.096-3.423 1.03-3.86 1.934-.088-.835.242-3.221.335-3.442.265-.043.499-.18.667-.373l.55.351a.994.994 0 00.944 1.307.992.992 0 10-.739-1.655l-.55-.356a1.125 1.125 0 00.056-.517l1.13-.409a1.264 1.264 0 002.354-.633 1.26 1.26 0 00-1.264-1.259 1.26 1.26 0 00-1.237 1.517l-1.107.395a1.124 1.124 0 00-.992-.593c-.62 0-1.125.501-1.125 1.122 0 .46.283.859.682 1.03-.114.328-.507 2.788-.494 3.645-.45-.375-1.2-.714-2.434-.917-.428-.066-.562.05-.23.203.27.124 2.505 1.102 2.724 2.419.085.524-.09 1.05-.5 1.24-1.049.505-2.25-.542-2.732-2.583-.2-.803-.357-2.223.396-3.673.25.595.662 1.049 1.315 1.033.62-.015 1.07-.51 1.056-1.093-.012-.492-.333-.878-.753-.921-.462-.048-.799.267-.8.64-.002.418.388.66.602.634.212-.02.24-.308.06-.34-.18-.029-.279-.132-.27-.29a.289.289 0 01.31-.265c.137.004.388.131.422.553.036.429-.366.627-.596.633-.182.003-.52.051-.834-.612a2.232 2.232 0 01-.164-.543c.474-.684 1.176-1.355 2.198-1.96 1.058-.627 2.456-1.225 4.29-1.733 1.52-.42 1.51-.455 1.51-.695 0-.227-.364-.22-1.57.024-.087-.287-.707-.095-.8-.125-.283-.092-.54-.588-.54-.588.192-.401.454-.597.638-.66.08-.024.3.074.51.077.28 0 .441-.1.658-.076.245.03.55.079.67-.11.046-.076-.003-.219-.144-.37-.062-.068-.217-.28-.476-.695-.3-.485-.881-.574-.881-.574s-.155-.38-.414-.535c0 0-.418.296-.457.666 0 0-.384.236-1.835.228-.49-.003-1.379-.182-2.065.094-1.802.714-1.768 2.011-1.718 2.482.05.469.148.735.025 1.307-.33 1.509-.287 2.011-.276 2.214.005.1.016.203.025.31a5.652 5.652 0 00-.978 1.552s-.244-.358-.325-1.173c-.243-2.47.729-4.28.861-4.524.16-.292.069-.355-.221-.1-1.035.9-1.336 1.875-1.342 2.7-.19-.51-.4-1.035-.63-1.584a12.816 12.816 0 002.346-3.183 1.592 1.592 0 002.102-1.504c0-.075-.01-.15-.02-.224 1.964-.742 4.284-.446 6.142.182.329.112.38 0 .062-.249-1.507-1.179-2.816-1.361-3.802-1.2a6.385 6.385 0 002.367-3.652 1.406 1.406 0 001.368-1.403 1.406 1.406 0 00-2.811 0c0 .55.316 1.025.778 1.254-.3 1.244-.901 2.172-1.613 2.856l-.318-1.011c.488-.21.83-.692.83-1.256 0-.752-.613-1.364-1.369-1.364-.755 0-1.368.612-1.368 1.364a1.366 1.366 0 001.512 1.357l.378 1.209c-.79.656-1.663 1.056-2.383 1.294a1.587 1.587 0 00-.688-.599c.573-2.018.72-3.954.72-5.406 2.425-1.72 5.444-1.787 5.756-1.809.386-.023.394-.162-.037-.278-3.492-.957-5.111.594-5.727 1.496-.016-.543-.049-.99-.08-1.316.39-.157.683-.5.768-.922l1.306-.787c.244.273.595.443.989.443a1.323 1.323 0 100-2.646 1.326 1.326 0 00-1.211 1.862l-1.081.652a1.267 1.267 0 00-1.315-1.032l-.228-1.106c.566-.22.969-.768.969-1.406 0-.837-.677-1.513-1.517-1.513-.838 0-1.518.676-1.518 1.513 0 .834.68 1.51 1.518 1.51.052 0 .102-.004.153-.007l.223 1.097a1.258 1.258 0 00-.799 1.166l-1.271-.302a1.19 1.19 0 00-1.187-1.318 1.19 1.19 0 100 2.38c.474 0 .878-.274 1.071-.671l1.462.347c.166.454.582.787 1.083.829.023.381.05.918.058 1.543-.595-.736-2.161-2.08-5.157-.943-.366.14-.35.255-.012.248.276-.005 2.922-.17 5.17 1.154-.004 1.276-.095 2.823-.415 4.175a7.777 7.777 0 00-.735-2.052 1.33 1.33 0 00-.934-2.276 1.33 1.33 0 10.448 2.581c.337.655.694 1.582.772 2.654a1.587 1.587 0 00-.927 2.797c-.298.561-.642 1.12-1.042 1.667.237-.754.237-1.812-.509-3.18-.157-.287-.25-.259-.206.02.036.222.48 2.358-.338 4.35-.2-.454-.413-.916-.643-1.39.264-.24.43-.584.43-.97a1.316 1.316 0 00-1.61-1.278 39.437 39.437 0 00-.392-.678l1.135-1.209c.237.163.526.26.835.26.807 0 1.46-.65 1.46-1.455 0-.804-.653-1.456-1.46-1.456-.807 0-1.46.652-1.46 1.456 0 .347.123.668.327.918l-1.054 1.125a42.613 42.613 0 00-.375-.61c.242-2.09 1.575-3.724 1.709-3.904.168-.227.1-.291-.175-.11-1.556 1.012-1.94 2.177-1.961 3.047l-.539-2.262 1.233-1.206a.979.979 0 10.59-1.76.98.98 0 00-.858 1.454l-1.075 1.051-.34-1.432a1.435 1.435 0 00-.462-2.794c-.796 0-1.44.64-1.44 1.436 0 .79.644 1.434 1.44 1.434l.062-.002.997 4.196-1.224-1.32c.162-.213.262-.479.262-.766a1.27 1.27 0 00-1.274-1.267 1.27 1.27 0 00-1.271 1.267 1.27 1.27 0 001.99 1.048l1.313 1.413-3.674-.763a1.462 1.462 0 00-1.451-1.65 1.46 1.46 0 100 2.92c.602 0 1.115-.361 1.341-.878l2.09.434c-.9.112-1.932.551-2.913 1.685-.256.294-.202.383.1.227.238-.126 2.468-1.403 5.02-1.263.172.294.335.585.495.871l-.988.192a1.118 1.118 0 00-.986-.587 1.116 1.116 0 100 2.232 1.118 1.118 0 001.105-1.285l1.06-.202c.085.157.17.313.25.468a1.313 1.313 0 001.123 2.29 37.426 37.426 0 011.23 3.023l-1.741.158a1.22 1.22 0 00-1.2-.986 1.219 1.219 0 100 2.438c.616 0 1.123-.451 1.21-1.043l.678-.062-.073 1.307c-.606.06-1.079.57-1.079 1.187 0 .66.537 1.19 1.197 1.19s1.195-.53 1.195-1.19c0-.559-.385-1.027-.905-1.154l.075-1.377.782-.075c.64 1.868.877 3.104.922 3.449.184 1.408-.982 1.518-2.782.977-.922-.279-2.044-.996-2.605-2.656a8.553 8.553 0 00-.932-1.93l.45-1.332a1.276 1.276 0 001.556-1.243c-.001-.704-.574-1.273-1.28-1.273-.705 0-1.278.569-1.278 1.273 0 .464.251.869.622 1.093l-.358 1.067a7.954 7.954 0 00-1.947-1.86l.02-.965a1.226 1.226 0 001.036-1.209 1.23 1.23 0 00-2.462 0c0 .557.373 1.028.883 1.176l-.013.664-1.405-.695a1.485 1.485 0 00-1.42-1.935 1.486 1.486 0 101.133 2.447s1.858.575 3.083 2.444l-1.19.06a1.578 1.578 0 00-1.54-1.222c-.875 0-1.583.704-1.583 1.574a1.581 1.581 0 003.155.141l1.47-.076c.441.753.636 1.5 1.14 3.153 1.1 3.608 3.443 3.163 5.028 4.961 2.642 2.994 2.715 6.67 3.52 7.47.974.964 2.537-1.37 3.237-.856.532.392.407 1.145.966 1.562.56.417 1.315-.622 1.815-.342.436.244-.049 1.205.725 1.663.766.456 1.292-.203 2.247.046.931.242 1.549 1.221 2.217 1.897 1.362 1.373 2.335.077 2.869-.697.18-.252 1.22-1.699 2.96-1.817 2.258-.157 5.036 1.089 5.104 8.803.033 3.427-.67 5.617-.67 5.617h7.901s-.7-2.19-.669-5.617c.069-7.714 2.846-8.96 5.105-8.803 1.741.118 2.78 1.565 2.96 1.817.533.774 1.508 2.07 2.87.697.668-.675 1.284-1.655 2.216-1.897.954-.249 1.48.41 2.246-.046.774-.458.292-1.419.727-1.663.5-.28 1.256.759 1.813.342.56-.417.434-1.17.966-1.562.702-.515 2.264 1.82 3.237.856.805-.8.88-4.476 3.521-7.47 1.584-1.798 3.929-1.353 5.027-4.96.239-.782.407-1.359.567-1.833.502-.212 1.178-.419 1.699-.562.343.216.883.489 1.382.465 1.774-.085 2.822-1.292 4.786-1.339 0 0-3.039-1.162-5.006-.588-.621.179-1.08.645-1.325.943-.39.108-.853.247-1.28.401.315-.748.714-1.296 1.611-2.333.48.082 1.173.129 1.702-.11 1.954-.897 2.584-2.726 4.768-3.667 0 0-3.942.067-5.893 1.602-.64.5-.945 1.28-1.075 1.719-.984.743-2.143 1.98-2.795 3.95-.815 2.465-3.356 2.876-4.272 2.81-.857-.065-1.284-.59.078-1.406.448-.01 1.098-.101 1.647-.463 1.948-1.3 3.154-4.816 3.154-4.816-1.484 1.683-3.314 1.717-4.689 3.207-.443.48-.583 1.284-.629 1.732l-.751.587c.213-1.974.826-3.338 1.366-4.657l1.755-.957c.47.078 1.203.12 1.868-.172 2.271-1 4.173-4.444 4.173-4.444-1.855 1.485-3.77 1.185-5.479 2.492-.568.433-.864 1.294-.984 1.737l-.993.53c.195-.462.397-.923.593-1.384.406-.929.816-1.871 1.186-2.816l1.496-.771c.442.067 1.43.16 2.244-.257 2.42-1.236 4.278-5.116 4.278-5.116-1.932 1.738-4.044 1.532-5.828 3.063-.525.456-.79 1.333-.905 1.807l-.986.495c.545-1.475.986-3.407 1.052-3.652.415-.25 1.11-.718 1.38-1.287 1.023-2.167-.112-3.66 1.071-6.026 0 0-2.961 2.364-3.515 5.068-.183.898.176 1.83.362 2.246-.432 1.98-1.972 6.257-2.567 7.234-.107-.745-.11-1.803-.117-2.296.305-.37.77-1.04.804-1.694.11-2.13-1.217-3.525-1.042-5.873 0 0-1.755 3.49-1.298 5.907.145.771.666 1.384.995 1.706.052.53.045 2.156.21 3.289-.984 2.307-1.836 4.514-2.076 6.765-.08.812-.257 1.475-.284 1.576-.657 2.369-2.262 3.68-3.193 3.013-.286-.202-.557-.57.174-1.648.292-.432.476-.737.476-.737.382-.187.986-.642 1.32-1.196 1.144-1.895.69-5.564.69-5.564-.592 2.034-2.074 2.977-2.65 4.806-.191.607.036 1.39.177 1.77 0 0-.456.702-.949 1.172-.001-.464.43-3.449.423-5.468l1.154-2.069c.44-.183 1.083-.54 1.489-1.142 1.382-2.054 1.15-5.978 1.15-5.978-.774 2.242-2.554 3.01-3.302 5.023-.246.67-.037 1.556.1 1.991l-.591 1.04c-.01-.65-.014-1.274-.103-1.884-.493-3.438.883-6.627 1.049-7.07.46-.069 1.118-.338 1.558-.794 1.548-1.599 1.82-5.083 1.82-5.083-1.032 1.859-3.11 2.372-3.705 3.803-.335.804-.257 1.512-.229 1.878-.123.261-.881 2.319-1.042 3.102-.197-.469-.38-.747-.6-1.28.158-.43.36-1.152.193-1.738-.556-1.943-2.17-2.791-2.734-4.953 0 0-.505 3.666.643 5.696.353.624.97 1.01 1.368 1.207.308.74.696 1.596.982 2.046-.208 1.069.051 3.707.106 4.226a30.45 30.45 0 01-.679-.947c.064-.448.105-1.192-.18-1.724-.939-1.768-2.684-2.257-3.681-4.235 0 0 .274 3.66 1.813 5.39.472.529 1.151.776 1.578.885.383.554.841 1.2 1.19 1.58.03 1.142-.016 2.362-.161 3.835-.166-.212-.339-.444-.498-.654.06-.452.108-1.288-.223-1.868-1.024-1.803-2.84-2.258-3.927-4.278 0 0 .387 3.78 2.028 5.524.468.496 1.116.733 1.56.848.3.4.7.927.972 1.255-.117.658-.16 1.764-.365 2.502-.605 2.193-1.91 3.8-2.872 3.657-.677-.104-.574-.705-.409-1.128.272-.084.82-.395 1.315-1.584.955-2.283-.218-4.61-.218-4.61-.3 2.35-1.484 2.02-1.82 4.14-.177 1.122.077 1.656.293 1.897-.21.554-1.064 1.658-2.194 2.07-1.867.687-2.785.043-1.465-1.214.407-.151 1.033-.455 1.512-1.007 1.629-1.867 1.636-5.056 1.636-5.056-1.045 2.13-2.329 2.118-3.318 4.025-.285.55-.312 1.27-.293 1.726-.208.167-.802.574-1.337 1.23-.7.849-.943 2.403-2.401 3.114-1.748.852-3.871-.352-5.155-.88-3.567-1.486-6.288.754-6.593.968 1.09-1.712 3.093-2.112 4.006-2.185.872-.069 2.128-.064 4.2.653 1.4.487 2.264.602 2.804.283.455-.267.677-.737.816-1.476.157-.868.166-1.88.745-2.522.66-.732 1.46-.474 1.847-1.277.394-.807-.54-1.338-.313-1.786.259-.507 1.466-.057 1.704-.71.237-.654-.288-1.214-.061-1.833.298-.817 2.895.272 3.175-1.07.227-1.11-1.743-4.214-1.198-8.165.325-2.373 2.62-3.322 1.45-6.903a13.988 13.988 0 01-.422-1.602c.255-.406.645-.952.795-1.171.337.02 1.51.014 2.408-.876 1.171-1.163 1.479-3.131 1.479-3.131s-2.222-.022-3.523 1.185c-.954.885-.829 2.111-.768 2.455-.097.138-.31.432-.526.753-.457-2.901.161-4.219.19-4.294 0 0 1.815-.236 2.743-1.85 1.029-1.785.748-4.255.748-4.255s-2.682.701-3.85 2.583c-.86 1.39-.267 2.86-.099 3.217-.543 1.2-1.183 3.818-.524 6.745.38 1.697-.528 3.068-1.164 3.734a11.35 11.35 0 00-.117-.202c.062-.119-.083-.178.01-.333.137-.234.639-1.008.268-1.237.229-.61-.292-1.456-.896-1.512-.234-.985-1.47-.98-1.746-.047-.12.108-.426.075-.493.22.06.09.222.074.316.104.204.068.218.065.326.176-.072.59-.337 1.488.006 2.092.398.698.887.745.887.745-.104.117-.102.727-.516.401-.976-.777-1.85-3.2-2.214-4.449.347-.2.805-.644 1.069-.911.362-.011 1.637-.122 2.356-1.263.978-1.556.52-3.808.52-3.808s-1.946.698-2.906 2.115c-.731 1.084-.51 2.275-.424 2.614-.228.228-.53.516-.772.686a24.878 24.878 0 01-.709-4.314c.412-.238.918-.67 1.192-.92.34.005 1.95-.027 2.84-1.354 1.195-1.78.738-4.413.738-4.413s-2.292.742-3.46 2.36c-.904 1.258-.625 2.742-.548 3.064-.228.202-.53.459-.802.647-.127-2.291.06-4 .108-4.379.39-.213 1.402-.876 1.736-2.154.457-1.766-.359-3.811-.359-3.811s-2.13 1.225-2.685 3.104c-.4 1.35.37 2.43.637 2.75-.046.332-.206 1.684-.17 3.57a12.067 12.067 0 01-.726-.617c.067-.297.272-1.487-.49-2.542-.972-1.339-2.88-1.952-2.88-1.952s-.371 2.192.624 3.666c.715 1.058 1.911 1.15 2.295 1.15.3.277.822.74 1.198.963.11 2.532.509 6.384 3.402 11.85a9.512 9.512 0 01-.879-.312c-.037-.282-.25-1.385-1.256-2.052-1.282-.854-3.145-.77-3.145-.77s.395 2.028 1.741 2.991c.966.69 2.038.378 2.37.257.37.152 1.01.398 1.409.457.483 1.221 1.053 3.077 1.078 4.014.054 1.855-.489 3.817-1.673 3.853-.628.019-1.371-.35-.694-2.012.35-.178 1.27-.75 1.432-1.9.231-1.662-.993-3.362-.993-3.362s-1.36 1.303-1.628 2.842c-.207 1.2.457 2.119.64 2.347zm-36.16-.054c.125-.892.375-1.386.812-1.494.424-.104.544.252.479.575-.025.118-.007.205.045.24-.484.306-.952.64-1.375 1.024.011-.12.024-.233.04-.345zm2.35-1.623c.119-.211.307-.357.214-.693-.125-.452 1.624-.554 1.624-.554.248.34.507.509.736.588-.52.163-1.13.381-1.763.655-.072-.288-.89.148-.811.004zm36.512-6.082c-.025-.207-.03-.574.13-.605 0 0 .142-.073.212-.02-.003.177.296.331.568.31-.022.018-.044.035-.061.046-.303.209-.585.283-.849.27zm9.272-13.163s-.544-.238-.593-.104c-.048.133.426.617.426.617s-.505-.144-.549-.028c-.04.117.421.535.421.535s-.444-.03-.441.123c.003.153.582.447.582.447s-.362.12-.342.222c.022.101.55.209.55.209s-.336.15-.313.312c.028.159.582.045.582.045s-.282.184-.25.315c.038.13.489-.024.489-.024s-.231.209-.142.335c.086.126.568-.047.568-.047s-.353.297-.298.408c.053.115.39.102.564.03.066-.023-.363.276-.285.413.053.089.571.096.571.096s-.42.254-.39.338c.055.162.566.148.566.148-.563.166-1.164 1.048-1.675 1.43-.337.247-1.225.721-1.596 1-.136.1-.843.587-.805.687.032.1.399-.043.399-.043s-.665.382-.584.535c.07.135.386-.025.386-.025s-.403.393-.332.488c.073.092.405-.137.552-.246.21-.16.96-.822.96-.822s-.352.432-.19.522c.158.09.82-.655.82-.655s-.058.286.104.328c.242.061.612-.58.612-.58-.052.49.35.165.465-.023.089-.145.334-.565.46-.73.053-.062.234-.093.459-.042.173.042.73.19.663.489-.017.075-.027.135.043.176.038.02.133-.025.152-.147a.507.507 0 00-.081-.368c.146.076.344.22.3.378-.024.08-.034.129.033.174.041.025.152-.031.175-.159a.495.495 0 00-.09-.38c.649.047 1.43-.205 1.69-.306.283-.11.573-.148.837-.056.267.094.5.047.62-.006.145-.067.297.019.297.019.09.17-.015.252-.015.252.482.15.526-.406.526-.406s.259-.189.151-.627c-.106-.436-.807-.681-.807-.681.281-.25.26-.294.567-.354.42-.08.755-.208 1.13-.39.377-.179 1.133-.48 1.413-.597.597-.254 1.42-1.26 1.396-1.338-.025-.078-.953.56-1.228.722-.13.076-.703.308-.703.308.677-.532 1.242-1.108 1.162-1.223-.081-.117-.632.365-.796.473-.427.286-.842.512-.842.512.11-.115.947-1.088.869-1.152-.084-.063-.677.382-.827.503-.145.126-.643.423-.643.423s.56-.778.425-.879c-.14-.1-.506.366-.706.571-.123.13-.313.31-.313.31s.012-.361-.148-.399c-.16-.039-.448.414-.448.414s-.036-.27-.216-.263c-.174.008-.533.501-.533.501s-.04-.353-.164-.31c-.12.047-.334.483-.334.483s-.134-.297-.265-.221c-.131.075-.247.392-.247.392s-.067-.272-.255-.182c-.19.09-.253.437-.253.437s-.13-.277-.234-.227c-.105.05-.21.372-.21.372s-.216-.019-.442-.254c-.813-.848-1.56-3.52-1.585-3.659-.027-.141-.224-1.003-.364-.953-.139.047-.083.333-.07.533.02.354.1.797.1.797s-.312-.812-.573-1.343c-.143-.289-.303-.564-.404-.527-.101.037-.025.375.027.616.067.317.159.657.159.657s-.303-.57-.582-.935c-.138-.18-.305-.383-.39-.374-.108.019-.058.297.051.506.177.327.409.785.409.785s-.387-.424-.646-.72c-.122-.138-.38-.453-.476-.407-.095.045.133.558.287.788.192.293.657 1.038.657 1.038z" fill="#fff"/><path fill-rule="evenodd" clip-rule="evenodd" d="M108 67l5.366 12.743h2.012L120.742 67h-1.772l-4.591 10.92L109.773 67H108zm14.153 2.745c.219.227.494.337.825.337.316 0 .587-.118.807-.343.221-.225.332-.499.332-.819 0-.323-.108-.597-.325-.825a1.091 1.091 0 00-.814-.34c-.331 0-.606.117-.825.34a1.127 1.127 0 00-.329.825c0 .331.105.609.329.825zm.031 9.998h1.6V71.35h-1.6v8.394zm5.622-.317c.629.381 1.356.574 2.168.574a3.87 3.87 0 001.734-.387c.524-.26.951-.62 1.282-1.082.332-.46.543-.975.626-1.549h-1.602a1.865 1.865 0 01-.686 1.165c-.377.298-.84.446-1.401.446-.485 0-.917-.126-1.292-.386a2.617 2.617 0 01-.884-1.088c-.219-.465-.325-.996-.325-1.588 0-.591.106-1.119.325-1.571.216-.458.512-.818.884-1.077a2.249 2.249 0 011.292-.386c.539 0 1 .156 1.382.47.386.312.624.703.705 1.174h1.602a3.51 3.51 0 00-1.908-2.654 3.81 3.81 0 00-1.734-.394c-.812 0-1.539.19-2.168.57a3.87 3.87 0 00-1.481 1.569c-.355.674-.53 1.437-.53 2.299 0 .86.175 1.628.53 2.308a3.926 3.926 0 001.481 1.587zm10.861.381a13.4 13.4 0 001.36-.086v-1.43c-.326.028-.611.047-.853.047-.348 0-.599-.041-.745-.13a.604.604 0 01-.286-.413c-.041-.185-.066-.496-.066-.926v-4.064h2.365V71.35h-2.365v-2.258h-1.614v2.258h-1.754v1.455h1.754v4.677c-.009.612.066 1.089.226 1.42.156.333.397.57.721.704.322.134.739.201 1.257.201zm5.131-.38c.633.38 1.351.573 2.153.573.813 0 1.534-.193 2.166-.574a3.983 3.983 0 001.491-1.587c.359-.68.534-1.448.534-2.308 0-.862-.175-1.626-.534-2.3a3.926 3.926 0 00-1.491-1.569c-.632-.38-1.353-.569-2.166-.569-.802 0-1.52.19-2.153.57a3.926 3.926 0 00-1.492 1.578c-.357.676-.536 1.44-.536 2.29 0 .86.179 1.628.536 2.308a4 4 0 001.492 1.587zm3.479-1.23c-.387.265-.83.396-1.326.396-.485 0-.924-.13-1.313-.397a2.558 2.558 0 01-.912-1.081 3.708 3.708 0 01-.327-1.584c0-.58.111-1.101.327-1.565.213-.46.519-.824.912-1.083a2.349 2.349 0 011.313-.386c.496 0 .939.13 1.326.386.391.26.695.623.912 1.083.217.464.324.985.324 1.565 0 .592-.107 1.12-.324 1.584a2.6 2.6 0 01-.912 1.081zm4.736-6.847v8.394h1.537v-4.73c0-.73.294-1.282.884-1.66.592-.376 1.396-.564 2.408-.564v-1.533c-1.656 0-2.754.563-3.292 1.69V71.35h-1.537zm6.096-1.605a1.1 1.1 0 00.819.337 1.1 1.1 0 00.81-.343 1.13 1.13 0 00.336-.819c0-.323-.112-.597-.327-.825a1.102 1.102 0 00-.819-.34c-.324 0-.597.117-.819.34a1.133 1.133 0 00-.332.825c0 .331.109.609.332.825zm.032 9.998h1.6V71.35h-1.6v8.394zm5.072-.092c.419.236.927.349 1.526.349.742 0 1.359-.16 1.863-.478.502-.316.869-.77 1.101-1.36.086 1.092.552 1.645 1.409 1.645.283 0 .569-.041.855-.13l.033-1.162-.192.016c-.229 0-.39-.064-.466-.193-.077-.13-.118-.358-.118-.694V74.14c0-.964-.297-1.714-.893-2.248-.602-.532-1.459-.8-2.574-.8-1.119 0-1.983.278-2.599.816-.611.545-.916 1.303-.916 2.285h1.518c0-.53.171-.943.515-1.248.344-.296.827-.449 1.448-.449.644 0 1.121.143 1.434.43.311.282.461.687.45 1.214v.49l-1.979.22c-1.216.143-2.129.434-2.745.879-.622.448-.926 1.042-.926 1.783 0 .441.103.85.318 1.231.209.372.524.676.938.907zm3.12-1.313a2.207 2.207 0 01-1.24.373c-.53 0-.917-.124-1.165-.363a1.164 1.164 0 01-.374-.865c0-.385.211-.695.625-.918.418-.23 1.054-.389 1.908-.485l1.491-.16a3.166 3.166 0 01-.351 1.408 2.636 2.636 0 01-.894 1.01zM111.933 63.163c.929.557 1.998.837 3.203.837 2.107 0 3.559-.784 4.363-2.357l.019 2.105h1.457v-6.504h-5.883v1.44h4.171a3.794 3.794 0 01-1.975 3.245c-.611.334-1.303.507-2.085.507-.881 0-1.659-.215-2.335-.642-.675-.426-1.198-1.021-1.568-1.788-.373-.763-.558-1.647-.558-2.648 0-.937.185-1.773.558-2.498a4.045 4.045 0 011.578-1.693c.683-.402 1.468-.602 2.353-.602a4.66 4.66 0 011.761.333 3.937 3.937 0 011.388.915c.375.39.622.838.738 1.345h1.729a4.666 4.666 0 00-.991-2.188 5.128 5.128 0 00-1.96-1.458c-.791-.342-1.657-.512-2.601-.512-1.226 0-2.315.275-3.273.823a5.703 5.703 0 00-2.231 2.287c-.528.972-.791 2.083-.791 3.33 0 1.272.254 2.406.765 3.395a5.699 5.699 0 002.168 2.328zm12.541.497c.417.23.926.34 1.527.34.741 0 1.363-.156 1.865-.469.501-.309.868-.754 1.104-1.334.085 1.075.555 1.614 1.411 1.614.286 0 .571-.042.853-.128l.035-1.139-.188.016c-.235 0-.39-.061-.47-.19-.078-.124-.118-.35-.118-.68v-3.434c0-.945-.3-1.68-.897-2.204-.597-.52-1.458-.78-2.576-.78-1.124 0-1.99.266-2.603.796-.617.534-.921 1.279-.921 2.24h1.526c0-.519.171-.927.512-1.22.344-.294.831-.44 1.451-.44.647 0 1.125.136 1.437.418.31.278.461.678.453 1.19v.48l-1.984.217c-1.216.137-2.132.428-2.749.862-.621.438-.931 1.02-.931 1.747 0 .432.106.835.316 1.207.21.366.525.662.947.89zm3.126-1.29a2.255 2.255 0 01-1.249.366c-.528 0-.917-.118-1.164-.356a1.136 1.136 0 01-.375-.848c0-.377.21-.68.63-.9.415-.225 1.054-.383 1.912-.475l1.488-.158a2.972 2.972 0 01-.349 1.381 2.62 2.62 0 01-.893.99zm5.272-6.848v8.227h1.538v-4.637c0-.717.295-1.257.887-1.63.592-.366 1.399-.55 2.41-.55v-1.503c-1.655 0-2.756.553-3.297 1.659v-1.566h-1.538zm7.248 7.919c.57.373 1.217.559 1.936.559.582 0 1.097-.136 1.556-.403a3.267 3.267 0 001.124-1.131v1.282h1.602V51.254h-1.602v5.549a3.171 3.171 0 00-1.141-1.127 3.123 3.123 0 00-1.587-.403 3.37 3.37 0 00-1.904.553c-.561.367-.998.885-1.316 1.54-.318.658-.473 1.405-.473 2.24 0 .854.155 1.613.473 2.277.318.662.762 1.182 1.332 1.559zm3.499-1.205c-.377.261-.795.39-1.259.39-.465 0-.886-.129-1.258-.39a2.592 2.592 0 01-.863-1.067c-.205-.453-.307-.97-.307-1.55 0-.568.102-1.082.307-1.535.207-.451.497-.806.863-1.057.372-.255.793-.38 1.258-.38.464 0 .882.125 1.259.38.374.251.665.606.869 1.057.207.453.313.967.313 1.534 0 .581-.106 1.098-.313 1.551a2.521 2.521 0 01-.869 1.067zm6.798 1.205c.633.373 1.352.559 2.156.559.634 0 1.212-.117 1.737-.356a3.453 3.453 0 001.276-.958c.329-.401.531-.843.62-1.328h-1.618c-.086.361-.311.668-.674.924-.365.259-.813.389-1.341.389-.738 0-1.335-.228-1.779-.688-.443-.457-.69-1.073-.742-1.843h6.233v-.631c0-.887-.171-1.648-.502-2.285-.334-.636-.78-1.127-1.338-1.455a3.608 3.608 0 00-1.872-.497c-.804 0-1.523.182-2.156.553a3.886 3.886 0 00-1.493 1.548c-.359.666-.538 1.413-.538 2.245 0 .844.179 1.6.538 2.264.36.662.857 1.182 1.493 1.559zm4.247-4.502h-4.612c.105-.706.37-1.266.799-1.673.428-.413.99-.619 1.672-.619.606 0 1.104.212 1.501.642.394.425.612.976.64 1.65zm3.665-3.417v8.227h1.62V59.68c0-.58.102-1.1.303-1.567.199-.464.484-.822.857-1.078.369-.26.791-.389 1.266-.389.589 0 1.051.2 1.378.597.33.404.496.951.496 1.646v4.858h1.634v-4.903c0-1.182-.259-2.073-.773-2.674-.512-.6-1.263-.899-2.257-.899-.657 0-1.229.147-1.716.438a3.516 3.516 0 00-1.188 1.221v-1.409h-1.62zm10.462 7.728c.663.502 1.551.75 2.676.75 1.086 0 1.947-.228 2.584-.687.636-.461.949-1.067.949-1.827 0-.623-.152-1.104-.459-1.44a2.48 2.48 0 00-1.116-.71c-.44-.138-1.001-.254-1.673-.347a10.74 10.74 0 01-1.166-.224 1.875 1.875 0 01-.702-.337c-.186-.153-.275-.37-.275-.642 0-.381.163-.69.484-.933.321-.245.758-.367 1.308-.367.613 0 1.102.144 1.468.436.367.29.559.695.575 1.212h1.539c-.063-.875-.403-1.573-1.02-2.09-.621-.518-1.424-.772-2.421-.772-.719 0-1.346.105-1.877.324-.534.214-.948.517-1.23.906a2.226 2.226 0 00-.426 1.346c0 .59.15 1.049.448 1.373.302.327.664.56 1.089.69.423.132.965.246 1.633.338.507.075.907.149 1.195.224.293.073.536.19.727.356.186.16.284.389.284.673 0 .37-.17.675-.502.916-.333.243-.785.365-1.358.365-.664 0-1.194-.14-1.584-.419-.393-.28-.6-.674-.636-1.18h-1.536c.021.876.362 1.565 1.022 2.066zM119.221 43.242c-.391-.562-.946-.919-1.664-1.08a2.486 2.486 0 001.259-1.032c.315-.497.471-1.087.471-1.775 0-1.021-.345-1.835-1.032-2.445-.69-.607-1.631-.91-2.827-.91H110v12.742h5.842c.77 0 1.457-.147 2.057-.435.596-.29 1.065-.7 1.403-1.225.341-.528.507-1.125.507-1.79 0-.809-.196-1.492-.588-2.05zm-7.568-1.677v-3.969h3.25c.87 0 1.532.17 1.996.515.458.346.688.841.688 1.486s-.223 1.135-.666 1.468c-.447.333-1.088.5-1.937.5h-3.331zm5.727 5.009c-.466.38-1.135.572-2.013.572h-3.714V43.05h3.775c.858 0 1.512.159 1.969.482.457.322.681.795.681 1.42 0 .698-.231 1.238-.698 1.622zm6.225 1.854c.633.382 1.353.572 2.159.572.812 0 1.538-.19 2.176-.572a4.04 4.04 0 001.488-1.588c.36-.677.539-1.449.539-2.307 0-.862-.179-1.627-.539-2.3a3.965 3.965 0 00-1.488-1.572c-.638-.377-1.364-.565-2.176-.565-.806 0-1.526.188-2.159.566a3.923 3.923 0 00-1.493 1.58c-.361.679-.544 1.44-.544 2.29 0 .86.183 1.63.544 2.308a3.996 3.996 0 001.493 1.588zm3.49-1.227a2.328 2.328 0 01-1.331.394c-.49 0-.927-.13-1.319-.394a2.63 2.63 0 01-.912-1.088c-.218-.463-.327-.99-.327-1.58 0-.583.109-1.103.327-1.565.216-.462.522-.822.912-1.083a2.35 2.35 0 011.319-.384c.495 0 .942.128 1.331.384.39.261.696.621.914 1.083.216.462.324.982.324 1.565 0 .59-.108 1.117-.324 1.58a2.648 2.648 0 01-.914 1.088zm7.968 1.606c.349 0 .806-.028 1.364-.084V47.29c-.328.03-.612.049-.858.049-.348 0-.597-.043-.743-.13a.606.606 0 01-.285-.415c-.043-.185-.063-.494-.063-.927v-4.063h2.363v-1.451h-2.363v-2.259h-1.62v2.259h-1.764v1.451h1.764v4.68c-.012.613.063 1.086.223 1.419.158.333.398.567.72.7.323.136.743.203 1.262.203zm4.312-.154c.417.23.926.347 1.528.347.745 0 1.364-.16 1.869-.478.5-.314.869-.77 1.101-1.36.086 1.094.556 1.645 1.414 1.645.285 0 .571-.044.858-.129l.03-1.163-.189.016c-.233 0-.39-.064-.47-.191-.078-.13-.118-.362-.118-.696v-3.5c0-.966-.296-1.718-.9-2.25-.595-.532-1.456-.798-2.576-.798-1.121 0-1.989.27-2.605.816-.615.543-.921 1.301-.921 2.281h1.524c0-.526.174-.94.516-1.244.348-.298.833-.448 1.453-.448.646 0 1.126.142 1.437.427.312.285.462.688.453 1.216v.486l-1.985.224c-1.217.139-2.134.434-2.75.88-.623.447-.932 1.041-.932 1.782 0 .442.105.85.317 1.227.213.374.525.68.946.91zm3.128-1.313a2.242 2.242 0 01-1.249.368c-.531 0-.917-.12-1.164-.36a1.158 1.158 0 01-.374-.864c0-.387.207-.694.628-.919.415-.23 1.056-.389 1.912-.486l1.491-.16a3.077 3.077 0 01-.349 1.41 2.655 2.655 0 01-.895 1.011zm5.277-6.986v8.388h1.618v-4.145c0-.593.1-1.125.301-1.597.201-.473.488-.843.858-1.105a2.138 2.138 0 011.27-.394c.591 0 1.05.204 1.383.612.327.41.489.965.489 1.677v4.952h1.634V43.74c0-1.203-.256-2.111-.769-2.723-.512-.614-1.266-.921-2.262-.921-.654 0-1.228.151-1.712.45a3.495 3.495 0 00-1.192 1.245v-1.437h-1.618zm9.726-1.604c.226.22.498.331.829.331.318 0 .587-.116.809-.34.221-.224.334-.501.334-.821 0-.324-.11-.598-.324-.822a1.096 1.096 0 00-.819-.34 1.12 1.12 0 00-.829.34 1.125 1.125 0 00-.328.822c0 .333.107.61.328.83zm.034 9.992h1.604v-8.39h-1.604v8.39zm5.634-.314c.636.382 1.362.572 2.178.572.631 0 1.213-.129 1.735-.387a3.452 3.452 0 001.287-1.082c.334-.462.543-.977.626-1.548h-1.599c-.09.473-.317.861-.693 1.163-.375.3-.844.449-1.407.449-.484 0-.915-.128-1.29-.384-.378-.258-.676-.623-.891-1.091a3.737 3.737 0 01-.326-1.587c0-.593.11-1.117.326-1.573a2.64 2.64 0 01.891-1.075 2.232 2.232 0 011.29-.384c.541 0 1.004.155 1.391.467.387.31.619.702.709 1.176H169a3.472 3.472 0 00-.626-1.563 3.52 3.52 0 00-1.287-1.092 3.792 3.792 0 00-1.735-.393c-.816 0-1.542.188-2.178.566a3.901 3.901 0 00-1.484 1.572c-.351.672-.528 1.437-.528 2.299 0 .858.177 1.63.528 2.307a3.975 3.975 0 001.484 1.588zM109 19v12.769h1.657v-5.334h3.635c.647 0 1.129.05 1.446.153.313.104.541.294.683.575.145.28.254.725.326 1.34.024.23.06.636.115 1.23.041.548.083.97.123 1.261.046.291.115.548.211.775h1.704v-.13a3.176 3.176 0 01-.232-.815c-.036-.277-.066-.631-.086-1.076a18.12 18.12 0 00-.175-1.824c-.085-.638-.26-1.119-.518-1.446-.26-.329-.643-.56-1.142-.69a2.756 2.756 0 001.452-1.148c.353-.549.526-1.189.526-1.922 0-1.173-.357-2.088-1.074-2.74-.72-.652-1.759-.978-3.121-.978H109zm5.292 5.917h-3.635V20.6h3.558c.935 0 1.631.186 2.086.56.459.369.684.905.684 1.606 0 .69-.221 1.22-.66 1.59-.439.375-1.117.56-2.033.56zm8.389 6.539c.638.381 1.361.571 2.167.571.818 0 1.547-.19 2.185-.571a4.015 4.015 0 001.499-1.592c.362-.682.544-1.451.544-2.315 0-.862-.182-1.628-.544-2.302a3.937 3.937 0 00-1.499-1.574c-.638-.38-1.367-.567-2.185-.567-.806 0-1.529.187-2.167.567a3.953 3.953 0 00-1.501 1.582c-.36.68-.541 1.445-.541 2.294 0 .864.181 1.633.541 2.315a4.041 4.041 0 001.501 1.592zm3.506-1.231a2.333 2.333 0 01-1.339.396 2.32 2.32 0 01-1.324-.396 2.632 2.632 0 01-.915-1.089c-.217-.464-.326-.993-.326-1.587 0-.58.109-1.103.326-1.566a2.58 2.58 0 01.915-1.084 2.362 2.362 0 011.324-.388c.501 0 .947.13 1.339.388.394.257.701.621.918 1.084.218.463.326.985.326 1.566 0 .594-.108 1.123-.326 1.587a2.61 2.61 0 01-.918 1.089zm4.035 3.356V35h.794c1.068 0 1.918-.193 2.562-.58.641-.388 1.156-1.061 1.539-2.02l3.395-9.037h-1.721l-2.391 6.629-3.079-6.629h-1.737l3.971 8.647c-.32.594-.646 1.004-.974 1.23-.329.226-.779.34-1.353.34h-1.006zm10.486-1.902c.419.235.931.348 1.539.348.741 0 1.367-.158 1.871-.475.505-.318.875-.775 1.108-1.365.084 1.098.555 1.647 1.418 1.647.286 0 .576-.043.861-.13l.033-1.163-.192.016c-.234 0-.392-.066-.469-.195-.079-.13-.121-.359-.121-.693v-3.51c0-.968-.298-1.72-.898-2.253-.605-.533-1.466-.8-2.592-.8-1.128 0-1.997.272-2.616.816-.618.546-.925 1.306-.925 2.288h1.531c0-.529.172-.942.518-1.244.347-.302.832-.455 1.458-.455.651 0 1.13.144 1.443.431.315.284.466.69.457 1.217v.487l-1.997.226c-1.222.14-2.14.433-2.764.878-.624.452-.934 1.046-.934 1.788 0 .443.109.853.32 1.23.212.375.529.683.951.911zm3.139-1.317a2.238 2.238 0 01-1.251.374c-.534 0-.921-.125-1.175-.364a1.164 1.164 0 01-.373-.866c0-.386.211-.694.63-.92.421-.227 1.06-.387 1.921-.486l1.5-.16a3.115 3.115 0 01-.353 1.412 2.65 2.65 0 01-.899 1.01zm5.523 1.407H151V19h-1.63v12.769z" fill="#000"/></svg>
